<svg xmlns="http://www.w3.org/2000/svg" width="208" height="87" viewBox="0 0 208 87">
  <metadata><?xpacket begin="﻿" id="W5M0MpCehiHzreSzNTczkc9d"?>
<x:xmpmeta xmlns:x="adobe:ns:meta/" x:xmptk="Adobe XMP Core 5.6-c140 79.160451, 2017/05/06-01:08:21        ">
   <rdf:RDF xmlns:rdf="http://www.w3.org/1999/02/22-rdf-syntax-ns#">
      <rdf:Description rdf:about=""/>
   </rdf:RDF>
</x:xmpmeta>
                                                                                                    
                                                                                                    
                                                                                                    
                                                                                                    
                                                                                                    
                                                                                                    
                                                                                                    
                                                                                                    
                                                                                                    
                                                                                                    
                                                                                                    
                                                                                                    
                                                                                                    
                                                                                                    
                                                                                                    
                                                                                                    
                                                                                                    
                                                                                                    
                                                                                                    
                                                                                                    
                           
<?xpacket end="w"?></metadata>
<defs>
    <style>
      .cls-1 {
        fill: #696969;
        fill-rule: evenodd;
      }
    </style>
  </defs>
  <path class="cls-1" d="M217.71,519.961a4.29,4.29,0,0,0-3.144-1.3H209.65V488.908a5.6,5.6,0,0,0-5.807-5.78h-1.6a6.356,6.356,0,0,0-2.786.632,5.65,5.65,0,0,0-2.132,1.725l-25.113,31.944A5.588,5.588,0,0,0,171,521.022v0.716a5.445,5.445,0,0,0,1.715,4.062,5.707,5.707,0,0,0,4.092,1.641h23.231v9.674a4.58,4.58,0,0,0,1.384,3.369,4.628,4.628,0,0,0,3.382,1.378,4.769,4.769,0,0,0,3.408-1.359,4.586,4.586,0,0,0,1.438-3.388v-9.674h4.916a4.356,4.356,0,0,0,3.121-1.239,4.18,4.18,0,0,0,1.322-3.109A4.259,4.259,0,0,0,217.71,519.961Zm-17.672-24.072v22.775H182.305ZM377.7,519.961a4.29,4.29,0,0,0-3.144-1.3h-4.915V488.908a5.688,5.688,0,0,0-1.608-4.114,5.631,5.631,0,0,0-4.2-1.666h-1.6a6.357,6.357,0,0,0-2.787.632,5.65,5.65,0,0,0-2.132,1.725l-25.113,31.944a5.588,5.588,0,0,0-1.214,3.593v0.716a5.442,5.442,0,0,0,1.716,4.062,5.7,5.7,0,0,0,4.091,1.641h23.231v9.674a4.58,4.58,0,0,0,1.384,3.369,4.628,4.628,0,0,0,3.382,1.378A4.767,4.767,0,0,0,368.2,540.5a4.583,4.583,0,0,0,1.439-3.388v-9.674h4.915a4.355,4.355,0,0,0,3.121-1.239A4.18,4.18,0,0,0,379,523.093,4.259,4.259,0,0,0,377.7,519.961Zm-17.672-24.072v22.775H342.3Zm-66.552,31.665,16.32,19.84a0.673,0.673,0,0,0,1.2-.478V495.762a0.476,0.476,0,0,0-.24-0.478L284.6,469.23c0-.239-0.24-0.239-0.48-0.239H244.04a4.9,4.9,0,0,0-3.6,1.434,4.331,4.331,0,0,0-1.44,3.346v77.447a4.856,4.856,0,0,0,1.44,3.586,4.19,4.19,0,0,0,3.36,1.2h60.957c0.48,0,.96-0.717.48-0.956l-18.479-21.991a0.884,0.884,0,0,0-.72-0.239,23.1,23.1,0,0,1-13.2,2.629,22.537,22.537,0,0,1-8.88-2.629,20.375,20.375,0,0,1-6.96-5.737,25.389,25.389,0,0,1-4.319-7.888,24.75,24.75,0,0,1-.96-9.323,22.314,22.314,0,0,1,2.64-8.844,20.324,20.324,0,0,1,5.759-6.932,25.526,25.526,0,0,1,7.92-4.3,25.018,25.018,0,0,1,9.359-.956,22.537,22.537,0,0,1,8.88,2.629,20.352,20.352,0,0,1,6.96,5.737,25.367,25.367,0,0,1,4.319,7.888,24.745,24.745,0,0,1,.96,9.322,22.932,22.932,0,0,1-5.04,12.43A0.448,0.448,0,0,0,293.477,527.554ZM276.438,497.2a14.533,14.533,0,0,0-11.039,3.346,15.128,15.128,0,0,0-5.52,10.04,14.393,14.393,0,0,0,3.36,10.995,15.222,15.222,0,0,0,10.08,5.5,14.529,14.529,0,0,0,11.039-3.347,15.124,15.124,0,0,0,5.52-10.039,14.4,14.4,0,0,0-3.36-11A13.5,13.5,0,0,0,276.438,497.2Z" transform="translate(-171 -469)"/>
</svg>
